<svg width="512" height="512" viewBox="0 0 512 512" fill="none" xmlns="http://www.w3.org/2000/svg">
  <rect width="512" height="512" rx="100" fill="#020617"/>
  
  <path d="M0 64H512M0 128H512M0 192H512M0 256H512M0 320H512M0 384H512M0 448H512M64 0V512M128 0V512M192 0V512M256 0V512M320 0V512M384 0V512M448 0V512" stroke="#00d2ff" stroke-width="1" opacity="0.15"/>
  
  <text x="40" y="60" fill="#fbbf24" font-family="monospace" font-size="24" font-weight="bold">RNG_ACTIVE</text>
  <text x="280" y="470" fill="#00d2ff" font-family="monospace" font-size="24">Σ(x)→random()</text>
  <circle cx="450" cy="60" r="15" fill="#22c55e" opacity="0.8"/> <text x="50%" y="240" dominant-baseline="middle" text-anchor="middle" fill="#ffffff" font-family="sans-serif" font-size="110" font-weight="900" letter-spacing="6">ZONE</text>
  <text x="50%" y="330" dominant-baseline="middle" text-anchor="middle" fill="#00d2ff" font-family="sans-serif" font-size="52" font-weight="700" letter-spacing="4">GENERATOR</text>
  
  <rect x="15" y="15" width="482" height="482" rx="85" stroke="#00d2ff" stroke-width="10" opacity="0.6"/>
</svg>
